_________________________  Visit us at _________________________
  
http://p2pdl.com  ____________________________  http://p2pdl.com


12 Rounds 2 Reloaded 2013 WEBRip 480p x264 - VYTO


Genre: Action
Plot: Nick Malloy portrays an Emergency Medical Technician (EMT) who finds himself caught in a deadly	
12-round game of cat and mouse with a vigilante tied to the paramedic's past. 
Director: Roel Reiné
Stars: Brian Markinson, Randy Orton, Cindy Busby.
Rated: R for violence, language, some sexuality/nudity, and brief drug use.


Info: 
http://www.imdb.com/title/tt2317524/

Trailer:


Format                         : MPEG-4
File size                      : 351 MiB
Duration                       : 1h 34mn
Overall bit rate               : 520 Kbps
Source                         : 720p.WEB-DL.H264-ELiTE

Video
Format                         : AVC
Bit rate                       : 478 Kbps
Width                          : 720 pixels
Height                         : 400 pixels
Display aspect ratio           : 16:9
Frame rate mode                : Constant
Frame rate                     : 23.976 fps
Stream size                    : 321 MiB (92%)
Writing library                : x264 core 130 r2273

Audio
Format                         : AAC
Bit rate                       : 40.0 Kbps
Channel(s)                     : 2 channels
Channel positions              : Front: L R
Sampling rate                  : 48.0 KHz
Stream size                    : 26.9 MiB (8%)
Language                       : English

Subtitle                       : Yes(English)
 
http://cdn.piczend.com/images/wkBeXGto/1369445214_frame6.png 
http://cdn.piczend.com/images/W31nMaEg/1369445231_frame7.png 
http://cdn.piczend.com/images/vVPug1vc/1369445230_frame8.png 
http://cdn.piczend.com/images/WNE2Hhj9/1369445233_frame9.png 
http://cdn.piczend.com/images/RKidZJMU/1369445219_frame10.png 
http://cdn.piczend.com/images/hv2r1gpr/1369445222_frame11.png 
http://cdn.piczend.com/images/Wo6F3KZm/1369445233_frame12.png 
http://cdn.piczend.com/images/1KQvm87w/1369445228_frame13.png

----------------------------------------------------------------------------------------------------


Encoded using revolutionary 10bit encoding, which enables us to provide you more crispier 
and sharper images at small sizes, just make sure you follow our instructions without a fault.
Recommend to you to use latest version of VLC player. Install K-Lite Codec Pack or shark007 codecs
in case of any kind of problem in playback (For non-VLC Media Player users). Alternatively, install
Core AVC codecs, the fastest decoder that there is coupled with Community Center Codec Pack and play
on Windows Media Player Classic. Check sample to be sure.
Enjoy!

Encoder Notes:Looking For Early Access To Anything You Can Provide DVDScr, R5, DVDR, BluRay, Direct
Audio, Music Releases and Seedboxes. We require dedicated servers, so as to do more 
and fast releases of movies.
If You Got anything to offer please contact us at "contact@p2pdl.com".

Face book Fan Page:   
http://www.fb.me/p2pdl